<svg
  xmlns="http://www.w3.org/2000/svg"
  viewBox="0 0 680 516"
  width="680"
  height="516"
  role="img"
  class="mera-diagram"
>
  <title>
    The recipe's two flows. On the first visit, createPasskeyWithPrfOutput
    creates the passkey and the app stores the credential metadata, credentialId
    and transports, which holds no key material. On a returning visit,
    getPasskeyPrfOutput signs in using the stored metadata. The PRF output
    becomes the seed through BIP-39, held in memory for the session, and HD
    derivation by index produces the EVM and Solana signing sessions, ended by
    lock().
  </title>
  <defs>
    <marker
      id="fr-arrow"
      viewBox="0 0 10 10"
      refX="8"
      refY="5"
      markerWidth="7"
      markerHeight="7"
      orient="auto-start-reverse"
    >
      <path d="M0 0 L10 5 L0 10 z" class="d-head" />
    </marker>
  </defs>

  <!-- first visit -->
  <rect class="d-zone" x="24" y="24" width="296" height="246" rx="10" />
  <text x="38" y="46" class="d-sub">first visit</text>

  <rect class="d-node" x="48" y="56" width="248" height="56" rx="8" />
  <text x="172" y="80" text-anchor="middle">Create the passkey</text>
  <text x="172" y="99" text-anchor="middle" class="d-mono">
    createPasskeyWithPrfOutput
  </text>

  <path class="d-edge" d="M172 112 V156" marker-end="url(#fr-arrow)" />

  <rect class="d-node" x="48" y="160" width="248" height="80" rx="8" />
  <text x="172" y="184" text-anchor="middle">Credential metadata</text>
  <text x="172" y="203" text-anchor="middle" class="d-sub">
    credentialId and transports
  </text>
  <text x="172" y="221" text-anchor="middle" class="d-sub">
    no key material
  </text>

  <!-- the stored record feeds the later sign-in -->
  <path
    class="d-edge d-dashed"
    d="M296 200 L378 92"
    marker-end="url(#fr-arrow)"
  />

  <!-- returning visit -->
  <rect class="d-zone" x="360" y="24" width="296" height="476" rx="10" />
  <text x="374" y="46" class="d-sub">returning visit</text>

  <rect class="d-node" x="384" y="56" width="248" height="56" rx="8" />
  <text x="508" y="80" text-anchor="middle">Sign in</text>
  <text x="508" y="99" text-anchor="middle" class="d-mono">
    getPasskeyPrfOutput
  </text>

  <path class="d-edge" d="M508 112 V156" marker-end="url(#fr-arrow)" />

  <rect class="d-secret" x="384" y="160" width="248" height="56" rx="8" />
  <text x="508" y="184" text-anchor="middle">PRF output</text>
  <text x="508" y="203" text-anchor="middle" class="d-sub">32 bytes</text>

  <path class="d-edge" d="M508 216 V260" marker-end="url(#fr-arrow)" />
  <text x="520" y="242" class="d-sub">BIP-39</text>

  <rect class="d-secret" x="384" y="264" width="248" height="56" rx="8" />
  <text x="508" y="288" text-anchor="middle">Seed</text>
  <text x="508" y="307" text-anchor="middle" class="d-sub">
    held in memory for the session
  </text>

  <path class="d-edge" d="M508 320 V364" marker-end="url(#fr-arrow)" />
  <text x="520" y="346" class="d-sub">HD derivation by index</text>

  <rect class="d-secret" x="384" y="368" width="248" height="64" rx="8" />
  <text x="508" y="394" text-anchor="middle">Signing sessions</text>
  <text x="508" y="413" text-anchor="middle" class="d-sub">
    EVM and Solana, numbered by index
  </text>

  <path class="d-edge" d="M508 432 V476" marker-end="url(#fr-arrow)" />
  <text x="520" y="458" class="d-mono">lock()</text>
</svg>
