<svg
  xmlns="http://www.w3.org/2000/svg"
  viewBox="0 0 784 104"
  width="784"
  height="104"
  role="img"
  class="mera-diagram"
>
  <title>
    The pipeline from a passkey to a signature. A sign-in ceremony returns 32
    secret bytes, the same bytes on every sign-in. The app derives a private key
    from them. A signing session holds the key and produces signatures. mera
    owns every step except the derivation, which belongs to the app.
  </title>
  <defs>
    <marker
      id="gs-arrow"
      viewBox="0 0 10 10"
      refX="8"
      refY="5"
      markerWidth="7"
      markerHeight="7"
      orient="auto-start-reverse"
    >
      <path d="M0 0 L10 5 L0 10 z" class="d-head" />
    </marker>
  </defs>

  <rect class="d-node" x="4" y="16" width="136" height="56" rx="8" />
  <text x="72" y="49" text-anchor="middle">Sign in</text>
  <text x="72" y="92" text-anchor="middle" class="d-sub">mera</text>

  <path class="d-edge" d="M140 44 H160" marker-end="url(#gs-arrow)" />

  <rect class="d-secret" x="164" y="16" width="136" height="56" rx="8" />
  <text x="232" y="49" text-anchor="middle">32 secret bytes</text>
  <text x="232" y="92" text-anchor="middle" class="d-sub">mera</text>

  <path class="d-edge" d="M300 44 H320" marker-end="url(#gs-arrow)" />

  <rect class="d-secret" x="324" y="16" width="136" height="56" rx="8" />
  <text x="392" y="49" text-anchor="middle">Derive a key</text>
  <text x="392" y="92" text-anchor="middle" class="d-sub">the app</text>

  <path class="d-edge" d="M460 44 H480" marker-end="url(#gs-arrow)" />

  <rect class="d-secret" x="484" y="16" width="136" height="56" rx="8" />
  <text x="552" y="49" text-anchor="middle">Signing session</text>
  <text x="552" y="92" text-anchor="middle" class="d-sub">mera</text>

  <path class="d-edge" d="M620 44 H640" marker-end="url(#gs-arrow)" />

  <rect class="d-node" x="644" y="16" width="136" height="56" rx="8" />
  <text x="712" y="49" text-anchor="middle">Signature</text>
</svg>
